<svg width="33" height="35" viewBox="0 0 33 35" fill="none" xmlns="http://www.w3.org/2000/svg">
<circle cx="18" cy="20" r="15" fill="#49D0FF"/>
<path d="M1.73333 8.33333H22.2667M1.73333 15.6667H22.2667M11.3889 1C9.32986 4.29953 8.23825 8.11072 8.23825 12C8.23825 15.8893 9.32986 19.7005 11.3889 23M12.6111 1C14.6701 4.29953 15.7617 8.11072 15.7617 12C15.7617 15.8893 14.6701 19.7005 12.6111 23M1 12C1 13.4445 1.28452 14.8749 1.83733 16.2095C2.39013 17.5441 3.20038 18.7567 4.22183 19.7782C5.24327 20.7996 6.4559 21.6099 7.79048 22.1627C9.12506 22.7155 10.5555 23 12 23C13.4445 23 14.8749 22.7155 16.2095 22.1627C17.5441 21.6099 18.7567 20.7996 19.7782 19.7782C20.7996 18.7567 21.6099 17.5441 22.1627 16.2095C22.7155 14.8749 23 13.4445 23 12C23 9.08262 21.8411 6.28473 19.7782 4.22183C17.7153 2.15893 14.9174 1 12 1C9.08262 1 6.28473 2.15893 4.22183 4.22183C2.15893 6.28473 1 9.08262 1 12Z" stroke="#121214" stroke-width="1.7" stroke-linecap="round" stroke-linejoin="round"/>
</svg>
