<svg width="36" height="33" viewBox="0 0 36 33" fill="none" xmlns="http://www.w3.org/2000/svg">
<circle cx="21" cy="18" r="15" fill="#49D0FF"/>
<path d="M1 3.71429C1 2.99441 1.28095 2.30402 1.78105 1.795C2.28115 1.28597 2.95942 1 3.66667 1H22.3333C23.0406 1 23.7189 1.28597 24.219 1.795C24.719 2.30402 25 2.99441 25 3.71429M1 3.71429V17.2857C1 18.0056 1.28095 18.696 1.78105 19.205C2.28115 19.714 2.95942 20 3.66667 20H22.3333C23.0406 20 23.7189 19.714 24.219 19.205C24.719 18.696 25 18.0056 25 17.2857V3.71429M1 3.71429L13 11.8571L25 3.71429" stroke="#121214" stroke-width="1.7" stroke-linecap="round" stroke-linejoin="round"/>
</svg>
