<svg width="36" height="35" viewBox="0 0 36 35" fill="none" xmlns="http://www.w3.org/2000/svg">
<circle cx="21" cy="20" r="15" fill="#49D0FF"/>
<path d="M11.6466 22.7895H3.42105C2.77895 22.7895 2.16315 22.5344 1.70911 22.0804C1.25507 21.6263 1 21.0105 1 20.3684V5.84211C1 5.2 1.25507 4.5842 1.70911 4.13016C2.16315 3.67613 2.77895 3.42105 3.42105 3.42105H17.9474C18.5895 3.42105 19.2053 3.67613 19.6593 4.13016C20.1133 4.5842 20.3684 5.2 20.3684 5.84211V10.6842H1M19.1579 14.3158V19.1579H24M19.1579 14.3158C20.4421 14.3158 21.6737 14.8259 22.5818 15.734C23.4899 16.6421 24 17.8737 24 19.1579M19.1579 14.3158C17.8737 14.3158 16.6421 14.8259 15.734 15.734C14.8259 16.6421 14.3158 17.8737 14.3158 19.1579C14.3158 20.4421 14.8259 21.6737 15.734 22.5818C16.6421 23.4899 17.8737 24 19.1579 24C20.4421 24 21.6737 23.4899 22.5818 22.5818C23.4899 21.6737 24 20.4421 24 19.1579M15.5263 1V5.84211M5.84211 1V5.84211" stroke="#121214" stroke-width="1.7" stroke-linecap="round" stroke-linejoin="round"/>
</svg>
