<svg width="33" height="33" viewBox="0 0 33 33" fill="none" xmlns="http://www.w3.org/2000/svg">
<path fill-rule="evenodd" clip-rule="evenodd" d="M4.80711 4.80711C2.80011 6.8141 2 10.2929 2 16.5C2 22.7071 2.80011 26.1859 4.80711 28.1929C6.8141 30.1999 10.2929 31 16.5 31C22.7071 31 26.1859 30.1999 28.1929 28.1929C30.1999 26.1859 31 22.7071 31 16.5C31 10.2929 30.1999 6.8141 28.1929 4.80711C26.1859 2.80011 22.7071 2 16.5 2C10.2929 2 6.8141 2.80011 4.80711 4.80711ZM3.39289 3.39289C6.0359 0.749886 10.3071 0 16.5 0C22.6929 0 26.9641 0.749886 29.6071 3.39289C32.2501 6.0359 33 10.3071 33 16.5C33 22.6929 32.2501 26.9641 29.6071 29.6071C26.9641 32.2501 22.6929 33 16.5 33C10.3071 33 6.0359 32.2501 3.39289 29.6071C0.749886 26.9641 0 22.6929 0 16.5C0 10.3071 0.749886 6.0359 3.39289 3.39289ZM15.5 11.3333C15.5 10.781 15.9477 10.3333 16.5 10.3333H16.5172C17.0695 10.3333 17.5172 10.781 17.5172 11.3333C17.5172 11.8856 17.0695 12.3333 16.5172 12.3333H16.5C15.9477 12.3333 15.5 11.8856 15.5 11.3333ZM13.7778 16.5C13.7778 15.9477 14.2255 15.5 14.7778 15.5H16.5C17.0523 15.5 17.5 15.9477 17.5 16.5V22.3889H18.2222C18.7745 22.3889 19.2222 22.8366 19.2222 23.3889C19.2222 23.9412 18.7745 24.3889 18.2222 24.3889H16.5C15.9477 24.3889 15.5 23.9412 15.5 23.3889V17.5H14.7778C14.2255 17.5 13.7778 17.0523 13.7778 16.5Z" fill="#8C8F96"/>
</svg>
