<svg width="36" height="36" viewBox="0 0 36 36" fill="none" xmlns="http://www.w3.org/2000/svg">
<path d="M18 6.20179e-08C14.4399 6.20179e-08 10.9598 1.05568 7.99974 3.03355C5.03966 5.01141 2.73255 7.82263 1.37018 11.1117C0.00779911 14.4008 -0.348661 18.02 0.345873 21.5116C1.04041 25.0033 2.75474 28.2106 5.27209 30.7279C7.78943 33.2453 10.9967 34.9596 14.4884 35.6541C17.98 36.3487 21.5992 35.9922 24.8883 34.6298C28.1774 33.2674 30.9886 30.9603 32.9665 28.0003C34.9443 25.0402 36 21.5601 36 18C36.0002 15.6361 35.5347 13.2954 34.6302 11.1115C33.7257 8.92751 32.3999 6.94313 30.7284 5.27164C29.0569 3.60015 27.0725 2.27428 24.8885 1.36977C22.7046 0.465254 20.3639 -0.000196162 18 6.20179e-08ZM23.7231 27.2744C23.6557 27.4424 23.5532 27.5941 23.4225 27.7192C23.2917 27.8444 23.1357 27.9401 22.9649 28C22.7941 28.0599 22.6124 28.0826 22.4322 28.0666C22.2519 28.0506 22.0771 27.9962 21.9195 27.9071L17.0331 24.1103L13.8969 27.0036C13.8242 27.0574 13.739 27.092 13.6494 27.1042C13.5598 27.1165 13.4685 27.106 13.3839 27.0737L13.9851 21.6945L14.0044 21.7097L14.0167 21.6035C14.0167 21.6035 22.8097 13.598 23.1679 13.2569C23.5305 12.9167 23.4109 12.8429 23.4109 12.8429C23.4315 12.428 22.7601 12.8429 22.7601 12.8429L11.1096 20.3382L6.25773 18.6858C6.25773 18.6858 5.51253 18.4185 5.44233 17.8308C5.36853 17.2476 6.28201 16.9308 6.28201 16.9308L25.5726 9.26728C25.5726 9.26728 27.1584 8.56074 27.1584 9.7308L23.7231 27.2744Z" fill="black"/>
<path d="M18 6.20179e-08C14.4399 6.20179e-08 10.9598 1.05568 7.99974 3.03355C5.03966 5.01141 2.73255 7.82263 1.37018 11.1117C0.00779911 14.4008 -0.348661 18.02 0.345873 21.5116C1.04041 25.0033 2.75474 28.2106 5.27209 30.7279C7.78943 33.2453 10.9967 34.9596 14.4884 35.6541C17.98 36.3487 21.5992 35.9922 24.8883 34.6298C28.1774 33.2674 30.9886 30.9603 32.9665 28.0003C34.9443 25.0402 36 21.5601 36 18C36.0002 15.6361 35.5347 13.2954 34.6302 11.1115C33.7257 8.92751 32.3999 6.94313 30.7284 5.27164C29.0569 3.60015 27.0725 2.27428 24.8885 1.36977C22.7046 0.465254 20.3639 -0.000196162 18 6.20179e-08ZM23.7231 27.2744C23.6557 27.4424 23.5532 27.5941 23.4225 27.7192C23.2917 27.8444 23.1357 27.9401 22.9649 28C22.7941 28.0599 22.6124 28.0826 22.4322 28.0666C22.2519 28.0506 22.0771 27.9962 21.9195 27.9071L17.0331 24.1103L13.8969 27.0036C13.8242 27.0574 13.739 27.092 13.6494 27.1042C13.5598 27.1165 13.4685 27.106 13.3839 27.0737L13.9851 21.6945L14.0044 21.7097L14.0167 21.6035C14.0167 21.6035 22.8097 13.598 23.1679 13.2569C23.5305 12.9167 23.4109 12.8429 23.4109 12.8429C23.4315 12.428 22.7601 12.8429 22.7601 12.8429L11.1096 20.3382L6.25773 18.6858C6.25773 18.6858 5.51253 18.4185 5.44233 17.8308C5.36853 17.2476 6.28201 16.9308 6.28201 16.9308L25.5726 9.26728C25.5726 9.26728 27.1584 8.56074 27.1584 9.7308L23.7231 27.2744Z" fill="url(#paint0_linear_66_1667)"/>
<defs>
<linearGradient id="paint0_linear_66_1667" x1="5.2722" y1="5.2722" x2="30.7278" y2="30.7278" gradientUnits="userSpaceOnUse">
<stop stop-color="#33BEF0"/>
<stop offset="1" stop-color="#0A85D9"/>
</linearGradient>
</defs>
</svg>
