<svg width="36" height="36" viewBox="0 0 36 36" fill="none" xmlns="http://www.w3.org/2000/svg">
<path d="M18.0045 0H17.9955C8.07077 0 2.36181e-05 8.07299 2.36181e-05 18C-0.00613935 21.7912 1.19398 25.4862 3.42677 28.5502L1.18352 35.2372L8.10226 33.0255C11.0371 34.9725 14.4825 36.0075 18.0045 36C27.9292 36 36 27.9247 36 18C36 8.07524 27.9292 0 18.0045 0ZM28.4782 25.4182C28.044 26.6445 26.3205 27.6615 24.9457 27.9585C24.0052 28.1587 22.7767 28.3185 18.6413 26.604C13.3515 24.4125 9.94501 19.0372 9.67951 18.6885C9.42526 18.3397 7.54201 15.8422 7.54201 13.2592C7.54201 10.6762 8.85376 9.41849 9.38251 8.87849C9.81676 8.43524 10.5345 8.23274 11.223 8.23274C11.4458 8.23274 11.646 8.24399 11.826 8.25299C12.3548 8.27549 12.6203 8.30699 12.969 9.14174C13.4033 10.188 14.4608 12.771 14.5868 13.0365C14.715 13.302 14.8433 13.662 14.6633 14.0107C14.4945 14.3707 14.346 14.5305 14.0805 14.8365C13.815 15.1425 13.563 15.3765 13.2975 15.705C13.0545 15.9907 12.78 16.2967 13.086 16.8255C13.392 17.343 14.4495 19.0687 16.0065 20.4547C18.0158 22.2435 19.6448 22.815 20.2275 23.058C20.6617 23.238 21.1792 23.1952 21.4965 22.8577C21.8992 22.4235 22.3965 21.7035 22.9027 20.9947C23.2627 20.4862 23.7172 20.4232 24.1942 20.6032C24.6802 20.772 27.252 22.0432 27.7807 22.3065C28.3095 22.572 28.6582 22.698 28.7865 22.9207C28.9125 23.1435 28.9125 24.1897 28.4782 25.4182Z" fill="black"/>
<path d="M18.0045 0H17.9955C8.07077 0 2.36181e-05 8.07299 2.36181e-05 18C-0.00613935 21.7912 1.19398 25.4862 3.42677 28.5502L1.18352 35.2372L8.10226 33.0255C11.0371 34.9725 14.4825 36.0075 18.0045 36C27.9292 36 36 27.9247 36 18C36 8.07524 27.9292 0 18.0045 0ZM28.4782 25.4182C28.044 26.6445 26.3205 27.6615 24.9457 27.9585C24.0052 28.1587 22.7767 28.3185 18.6413 26.604C13.3515 24.4125 9.94501 19.0372 9.67951 18.6885C9.42526 18.3397 7.54201 15.8422 7.54201 13.2592C7.54201 10.6762 8.85376 9.41849 9.38251 8.87849C9.81676 8.43524 10.5345 8.23274 11.223 8.23274C11.4458 8.23274 11.646 8.24399 11.826 8.25299C12.3548 8.27549 12.6203 8.30699 12.969 9.14174C13.4033 10.188 14.4608 12.771 14.5868 13.0365C14.715 13.302 14.8433 13.662 14.6633 14.0107C14.4945 14.3707 14.346 14.5305 14.0805 14.8365C13.815 15.1425 13.563 15.3765 13.2975 15.705C13.0545 15.9907 12.78 16.2967 13.086 16.8255C13.392 17.343 14.4495 19.0687 16.0065 20.4547C18.0158 22.2435 19.6448 22.815 20.2275 23.058C20.6617 23.238 21.1792 23.1952 21.4965 22.8577C21.8992 22.4235 22.3965 21.7035 22.9027 20.9947C23.2627 20.4862 23.7172 20.4232 24.1942 20.6032C24.6802 20.772 27.252 22.0432 27.7807 22.3065C28.3095 22.572 28.6582 22.698 28.7865 22.9207C28.9125 23.1435 28.9125 24.1897 28.4782 25.4182Z" fill="url(#paint0_linear_66_1670)"/>
<defs>
<linearGradient id="paint0_linear_66_1670" x1="8.51124" y1="2.87425" x2="23.8791" y2="35.4255" gradientUnits="userSpaceOnUse">
<stop stop-color="#63D46D"/>
<stop offset="1" stop-color="#21B238"/>
</linearGradient>
</defs>
</svg>
