<svg width="140" height="24" viewBox="0 0 140 24" fill="none" xmlns="http://www.w3.org/2000/svg">
<path d="M38.2915 14.7873C38.2915 15.4752 38.0959 16.0342 37.7048 16.4642C37.3137 16.8942 36.7474 17.1693 36.0059 17.2898L38.2426 19.9728V20.3211H35.7981L33.4146 17.3543H32.1556V20.3211H29.9922V11.8591H35.138C36.1159 11.8591 36.8859 12.1085 37.4481 12.6072C38.0103 13.1061 38.2915 13.7897 38.2915 14.6583V14.7873ZM36.0914 14.6454C36.0914 14.1122 35.7573 13.8456 35.0891 13.8456H32.1556V15.5871H35.0891C35.4151 15.5871 35.6636 15.5182 35.8347 15.3807C36.0059 15.243 36.0914 15.041 36.0914 14.7744V14.6454ZM47.1245 11.8591V13.8327H42.0031V15.1098H46.88V17.0576H42.0031V18.3475H47.1245V20.3211H39.8397V11.8591H47.1245ZM57.1429 19.9728V20.3211H55.004L54.3806 18.7603H50.6405L50.0171 20.3211H47.8781V19.9728L51.3127 11.8591H53.7084L57.1429 19.9728ZM53.6228 16.8383L52.5105 14.0391L51.3983 16.8383H53.6228ZM62.1853 11.8591C63.7172 11.8591 64.8702 12.2117 65.6443 12.9168C66.4266 13.6134 66.8177 14.654 66.8177 16.0385V16.1546C66.8177 18.9323 65.2735 20.3211 62.1853 20.3211H58.0784V11.8591H62.1853ZM62.1853 18.283C63.0327 18.283 63.6479 18.1153 64.0309 17.7799C64.422 17.4446 64.6176 16.9157 64.6176 16.1933V16.0127C64.6176 15.2989 64.418 14.7701 64.0187 14.4261C63.6194 14.0735 63.0042 13.8972 62.1731 13.8972H60.2418V18.283H62.1853ZM75.826 11.8591V12.2074L72.4155 17.0318V20.3211H70.2522V17.0318L66.8298 12.2074V11.8591H69.1277L71.3403 15.0582L73.5405 11.8591H75.826ZM80.7565 20.4888C79.7709 20.4888 78.9031 20.3125 78.1534 19.9599C77.4115 19.5987 76.8372 19.0914 76.43 18.4378C76.0307 17.7843 75.831 17.0189 75.831 16.1417V16.0514C75.831 15.1743 76.0307 14.4089 76.43 13.7553C76.8372 13.0932 77.4115 12.5858 78.1534 12.2332C78.9031 11.872 79.7709 11.6914 80.7565 11.6914C81.6776 11.6914 82.5048 11.8505 83.2375 12.1687C83.9709 12.4869 84.5415 12.9255 84.9487 13.4844C85.3645 14.0434 85.5727 14.6754 85.5727 15.3807V15.4839H83.3597V15.3807C83.3597 14.9076 83.1195 14.5293 82.6391 14.2455C82.1665 13.9617 81.539 13.8198 80.7565 13.8198C78.9394 13.8198 78.0312 14.5551 78.0312 16.0256V16.1804C78.0312 16.9113 78.255 17.4575 78.7034 17.8186C79.1512 18.1798 79.8355 18.3604 80.7565 18.3604C81.5631 18.3604 82.1992 18.2228 82.6632 17.9476C83.128 17.6724 83.3597 17.2941 83.3597 16.8125V16.7222H85.5727V16.8125C85.5727 17.5176 85.3645 18.1497 84.9487 18.7087C84.5415 19.2677 83.9709 19.7062 83.2375 20.0244C82.5048 20.334 81.6776 20.4888 80.7565 20.4888ZM91.3788 20.4888C90.4087 20.4888 89.5531 20.3125 88.8119 19.9599C88.0785 19.5987 87.5121 19.0914 87.1127 18.4378C86.7133 17.7756 86.5136 17.0103 86.5136 16.1417V16.0514C86.5136 15.1743 86.7133 14.4089 87.1127 13.7553C87.5121 13.0932 88.0785 12.5858 88.8119 12.2332C89.5531 11.872 90.4087 11.6914 91.3788 11.6914C92.3645 11.6914 93.2244 11.872 93.9578 12.2332C94.6912 12.5858 95.2568 13.0932 95.6562 13.7553C96.0556 14.4089 96.2553 15.1743 96.2553 16.0514V16.1417C96.2553 17.0189 96.0556 17.7843 95.6562 18.4378C95.2568 19.0914 94.6912 19.5987 93.9578 19.9599C93.2244 20.3125 92.3645 20.4888 91.3788 20.4888ZM91.3788 18.3604C93.1632 18.3604 94.0551 17.6337 94.0551 16.1804V16.0256C94.0551 15.3033 93.827 14.7572 93.3707 14.3874C92.9223 14.009 92.2586 13.8198 91.3788 13.8198C90.5146 13.8198 89.8544 14.009 89.3982 14.3874C88.9419 14.7657 88.7138 15.3118 88.7138 16.0256V16.1804C88.7138 16.8942 88.9377 17.436 89.3861 17.8057C89.8345 18.1755 90.4983 18.3604 91.3788 18.3604ZM101.718 11.8591C103.25 11.8591 104.403 12.2117 105.178 12.9168C105.959 13.6134 106.351 14.654 106.351 16.0385V16.1546C106.351 18.9323 104.807 20.3211 101.718 20.3211H97.6113V11.8591H101.718ZM101.718 18.283C102.566 18.283 103.181 18.1153 103.564 17.7799C103.955 17.4446 104.151 16.9157 104.151 16.1933V16.0127C104.151 15.2989 103.951 14.7701 103.552 14.4261C103.152 14.0735 102.538 13.8972 101.706 13.8972H99.7752V18.283H101.718ZM114.995 11.8591V13.8327H109.873V15.1098H114.75V17.0576H109.873V18.3475H114.995V20.3211H107.71V11.8591H114.995ZM117.716 20.4888C117.358 20.4888 117.064 20.3727 116.836 20.1405C116.608 19.8997 116.493 19.5945 116.493 19.2246C116.493 18.8549 116.608 18.5582 116.836 18.3346C117.064 18.1024 117.358 17.9863 117.716 17.9863C118.083 17.9863 118.376 18.1024 118.596 18.3346C118.824 18.5582 118.938 18.8549 118.938 19.2246C118.938 19.6031 118.824 19.9083 118.596 20.1405C118.376 20.3727 118.083 20.4888 117.716 20.4888ZM128.924 14.7873C128.924 15.4752 128.728 16.0342 128.337 16.4642C127.946 16.8942 127.38 17.1693 126.638 17.2898L128.875 19.9728V20.3211H126.431L124.047 17.3543H122.789V20.3211H120.625V11.8591H125.77C126.748 11.8591 127.519 12.1085 128.081 12.6072C128.643 13.1061 128.924 13.7897 128.924 14.6583V14.7873ZM126.724 14.6454C126.724 14.1122 126.39 13.8456 125.721 13.8456H122.789V15.5871H125.721C126.048 15.5871 126.296 15.5182 126.468 15.3807C126.638 15.243 126.724 15.041 126.724 14.7744V14.6454ZM134.445 20.4888C133.622 20.4888 132.9 20.3211 132.282 19.9857C131.662 19.6418 131.185 19.1559 130.851 18.5281C130.517 17.9004 130.35 17.1737 130.35 16.3481V11.8591H132.513V16.3868C132.513 17.0318 132.677 17.5219 133.002 17.8573C133.328 18.1927 133.809 18.3604 134.445 18.3604C135.089 18.3604 135.573 18.1927 135.899 17.8573C136.225 17.5219 136.388 17.0318 136.388 16.3868V11.8591H138.552V16.3481C138.552 17.1822 138.38 17.9133 138.038 18.541C137.704 19.1601 137.228 19.6418 136.608 19.9857C135.989 20.3211 135.268 20.4888 134.445 20.4888Z" fill="#6E6E74"/>
<path d="M33.3263 1.70811C33.8606 1.70811 34.2831 1.84395 34.594 2.11563C34.9049 2.3822 35.0603 2.74359 35.0603 3.19981V3.29208C35.0603 3.74831 34.9049 4.11226 34.594 4.38395C34.2831 4.65051 33.8606 4.78378 33.3263 4.78378H31.1114V6.75222H30.3828V1.70811H33.3263ZM33.3117 4.09944C33.6323 4.09944 33.88 4.03024 34.0549 3.89184C34.2346 3.74831 34.3244 3.54839 34.3244 3.29208V3.19981C34.3244 2.94351 34.2346 2.74615 34.0549 2.60775C33.88 2.46421 33.6323 2.39245 33.3117 2.39245H31.1114V4.09944H33.3117ZM40.2642 6.63688V6.75222H39.521L38.9527 5.47581H36.257L35.6887 6.75222H34.9455V6.63688L37.2042 1.70811H38.0056L40.2642 6.63688ZM38.6395 4.78378L37.6048 2.46934L36.5702 4.78378H38.6395ZM45.0617 4.19172C45.3191 4.29424 45.5159 4.43521 45.6518 4.61462C45.7879 4.79403 45.8559 5.00164 45.8559 5.23745V5.32971C45.8559 5.81157 45.6349 6.18578 45.1928 6.45233C44.7557 6.71377 44.1315 6.84449 43.3204 6.84449C42.4412 6.84449 41.7709 6.6702 41.3095 6.32162C40.8529 5.96792 40.6246 5.45274 40.6246 4.77609V4.70689H41.3605V4.77609C41.3605 5.24257 41.5184 5.58603 41.834 5.80644C42.1546 6.02175 42.6549 6.12939 43.3349 6.12939C43.9421 6.12939 44.3914 6.06276 44.6829 5.92947C44.9743 5.79619 45.12 5.58858 45.12 5.30665V5.22206C45.12 4.98627 45.0107 4.81967 44.7922 4.72227C44.5736 4.61975 44.202 4.56849 43.6774 4.56849H42.4023V3.88415H43.6264C44.1121 3.88415 44.4618 3.83033 44.6755 3.72267C44.8941 3.61503 45.0034 3.44074 45.0034 3.19981V3.11523C45.0034 2.59236 44.4278 2.33094 43.2767 2.33094C42.6355 2.33094 42.1595 2.44371 41.8487 2.66926C41.5378 2.89481 41.3823 3.2357 41.3823 3.69192V3.75343H40.6538V3.69192C40.6538 3.0204 40.8796 2.50779 41.3313 2.15409C41.7879 1.79526 42.4412 1.61584 43.2912 1.61584C44.0684 1.61584 44.6707 1.74399 45.0982 2.0003C45.5256 2.2566 45.7393 2.61543 45.7393 3.07679V3.17674C45.7393 3.63297 45.5134 3.97129 45.0617 4.19172ZM49.8049 1.70811C50.3391 1.70811 50.7617 1.84395 51.0726 2.11563C51.3835 2.3822 51.5389 2.74359 51.5389 3.19981V3.29208C51.5389 3.74831 51.3835 4.11226 51.0726 4.38395C50.7617 4.65051 50.3391 4.78378 49.8049 4.78378H47.5899V6.75222H46.8614V1.70811H49.8049ZM49.7903 4.09944C50.1109 4.09944 50.3586 4.03024 50.5334 3.89184C50.7132 3.74831 50.803 3.54839 50.803 3.29208V3.19981C50.803 2.94351 50.7132 2.74615 50.5334 2.60775C50.3586 2.46421 50.1109 2.39245 49.7903 2.39245H47.5899V4.09944H49.7903ZM56.7428 6.63688V6.75222H55.9996L55.4313 5.47581H52.7356L52.1672 6.75222H51.4241V6.63688L53.6827 1.70811H54.4841L56.7428 6.63688ZM55.118 4.78378L54.0834 2.46934L53.0488 4.78378H55.118ZM61.7812 1.70811V2.39245H58.284V3.80726H60.4187C60.9676 3.80726 61.3926 3.93285 61.6937 4.18403C61.9997 4.43008 62.1527 4.77866 62.1527 5.22975V5.32971C62.1527 5.77569 61.9997 6.12426 61.6937 6.37544C61.3877 6.62663 60.9627 6.75222 60.4187 6.75222H57.5554V1.70811H61.7812ZM60.4114 6.06788C60.7223 6.06788 60.9676 6.00124 61.1473 5.86796C61.3318 5.73468 61.4242 5.55527 61.4242 5.32971V5.22975C61.4242 4.99908 61.3343 4.81967 61.1546 4.69151C60.9749 4.55823 60.7271 4.4916 60.4114 4.4916H58.284V6.06788H60.4114ZM65.8041 6.84449C65.2552 6.84449 64.7743 6.7394 64.3615 6.52922C63.9486 6.31906 63.6305 6.02175 63.407 5.63728C63.1836 5.25282 63.0719 4.80173 63.0719 4.28399V4.18403C63.0719 3.66629 63.1836 3.21519 63.407 2.83073C63.6305 2.44115 63.9486 2.14127 64.3615 1.9311C64.7743 1.72092 65.2552 1.61584 65.8041 1.61584C66.3529 1.61584 66.8314 1.72092 67.2394 1.9311C67.6523 2.14127 67.9704 2.44115 68.1938 2.83073C68.4173 3.21519 68.529 3.66629 68.529 4.18403V4.28399C68.529 4.80173 68.4173 5.25282 68.1938 5.63728C67.9704 6.02175 67.6523 6.31906 67.2394 6.52922C66.8314 6.7394 66.3529 6.84449 65.8041 6.84449ZM65.8041 6.12939C66.4307 6.12939 66.9188 5.96792 67.2686 5.64498C67.6183 5.32203 67.7932 4.87349 67.7932 4.29936V4.17634C67.7932 3.59708 67.6183 3.14599 67.2686 2.82304C66.9188 2.49497 66.4307 2.33094 65.8041 2.33094C65.1775 2.33094 64.6869 2.49497 64.3323 2.82304C63.9826 3.14599 63.8078 3.59708 63.8078 4.17634V4.29936C63.8078 4.87349 63.9826 5.32203 64.3323 5.64498C64.6869 5.96792 65.1775 6.12939 65.8041 6.12939ZM68.869 2.39245V1.70811H73.7289V2.39245H71.6595V6.75222H70.9381V2.39245H68.869ZM79.2181 1.82345L76.9589 4.18403L79.1449 6.63688V6.75222H78.2999L76.3179 4.54541H75.2178V6.75222H74.4894V1.70811H75.2178V3.85339H76.3037L78.3433 1.70811H79.2181V1.82345ZM85.1322 6.63688V6.75222H84.3888L83.8203 5.47581H81.1248L80.5563 6.75222H79.8136V6.63688L82.0721 1.70811H82.8737L85.1322 6.63688ZM83.5069 4.78378L82.4729 2.46934L81.4382 4.78378H83.5069ZM90.9994 6.84449C90.4408 6.84449 89.9526 6.74196 89.5347 6.53692C89.1176 6.32675 88.7942 6.02943 88.5661 5.64498C88.343 5.26051 88.2307 4.81198 88.2307 4.29936V4.16865C88.2307 3.65604 88.343 3.2075 88.5661 2.82304C88.7942 2.43858 89.1176 2.14127 89.5347 1.9311C89.9526 1.72092 90.4408 1.61584 90.9994 1.61584C91.5047 1.61584 91.9588 1.70555 92.3617 1.88496C92.7697 2.06438 93.088 2.313 93.3162 2.63082C93.5493 2.94351 93.6658 3.29465 93.6658 3.68423V3.75343H92.9303V3.68423C92.9303 3.42792 92.8478 3.19725 92.6823 2.9922C92.5174 2.78716 92.2864 2.62569 91.9901 2.50779C91.6987 2.38989 91.3689 2.33094 90.9994 2.33094C90.3484 2.33094 89.846 2.48985 89.4914 2.80767C89.1417 3.12549 88.9669 3.57658 88.9669 4.16096V4.30706C88.9669 4.89144 89.1417 5.34253 89.4914 5.66035C89.846 5.97305 90.3484 6.12939 90.9994 6.12939C91.3732 6.12939 91.7065 6.073 91.9979 5.96023C92.2942 5.84233 92.5224 5.68086 92.6823 5.47581C92.8478 5.27076 92.9303 5.04009 92.9303 4.78378V4.70689H93.6658V4.78378C93.6658 5.17337 93.5493 5.52451 93.3162 5.8372C93.088 6.1499 92.7697 6.39595 92.3617 6.57537C91.9588 6.75478 91.5047 6.84449 90.9994 6.84449ZM99.3127 6.63688V6.75222H98.5694L98.0008 5.47581H95.3053L94.7368 6.75222H93.9934V6.63688L96.2526 1.70811H97.0535L99.3127 6.63688ZM97.6874 4.78378L96.6534 2.46934L95.6187 4.78378H97.6874ZM100.853 1.70811V5.70648L104.023 1.70811H104.751V6.75222H104.023V2.75384L100.853 6.75222H100.125V1.70811H100.853ZM102.442 1.17756C101.936 1.17756 101.553 1.08785 101.29 0.908433C101.028 0.729019 100.897 0.467587 100.897 0.124137V0.0703125H101.538V0.124137C101.538 0.262542 101.616 0.370191 101.772 0.447082C101.927 0.518848 102.15 0.554731 102.442 0.554731C102.724 0.554731 102.937 0.518848 103.083 0.447082C103.233 0.370191 103.309 0.262542 103.309 0.124137V0.0703125H103.987V0.124137C103.987 0.472713 103.855 0.736708 103.593 0.91612C103.336 1.09041 102.952 1.17756 102.442 1.17756ZM105.512 2.39245V1.70811H110.371V2.39245H108.302V6.75222H107.581V2.39245H105.512ZM115.35 6.63688V6.75222H114.607L114.038 5.47581H111.343L110.774 6.75222H110.031V6.63688L112.29 1.70811H113.091L115.35 6.63688ZM113.725 4.78378L112.69 2.46934L111.656 4.78378H113.725Z" fill="#6E6E74"/>
<path fill-rule="evenodd" clip-rule="evenodd" d="M0 1.74219C0.0106033 1.81175 0.021528 1.89342 0.0296231 1.96595C0.0442406 2.09693 0.0793168 2.32912 0.107598 2.48193C0.13588 2.63474 0.169605 2.93241 0.182568 3.14343C0.19553 3.35445 0.222282 3.61046 0.24204 3.71233C0.261796 3.8142 0.295268 4.04666 0.316429 4.22887C0.33759 4.4111 0.36685 4.62543 0.381442 4.70515C0.421734 4.92552 0.475865 5.42453 0.494744 5.74978C0.504046 5.90986 0.532303 6.1361 0.557576 6.25253C0.582824 6.36895 0.615869 6.58328 0.631013 6.72881C0.646132 6.87435 0.68008 7.10058 0.706431 7.23156C0.732783 7.36254 0.761216 7.60663 0.769616 7.77403C0.778016 7.94136 0.806372 8.22118 0.832623 8.39578C0.858896 8.57046 0.897734 8.85028 0.918947 9.01761C0.940182 9.18501 0.973704 9.41121 0.99346 9.52041C1.01322 9.62953 1.04252 9.89743 1.05857 10.1158C1.07465 10.334 1.11052 10.6555 1.13833 10.8301C1.16616 11.0048 1.20369 11.2727 1.22179 11.4256C1.25486 11.7051 1.29914 11.9701 1.3183 12.0031C1.32397 12.0129 1.34179 12.2233 1.35794 12.4707C1.37406 12.7181 1.40783 13.0277 1.43298 13.1587C1.45815 13.2897 1.48666 13.4861 1.49639 13.5953C1.50612 13.7044 1.53565 13.9069 1.56205 14.0451C1.58843 14.1834 1.62729 14.5227 1.6484 14.7992C1.66949 15.0757 1.70364 15.3973 1.72425 15.5137C1.74488 15.6301 1.78432 15.904 1.81195 16.1222C1.83955 16.3405 1.87267 16.561 1.88556 16.612C1.89845 16.6631 1.92548 16.9195 1.94561 17.1819C1.96577 17.4442 1.99914 17.7358 2.0198 17.8299C2.04046 17.9239 2.07599 18.1557 2.09875 18.3449C2.12152 18.5341 2.15527 18.7544 2.17375 18.8344C2.19222 18.9145 2.21987 19.1704 2.23517 19.4033C2.2644 19.8481 2.32342 20.3293 2.36176 20.4358C2.37422 20.4703 2.41111 20.5171 2.44372 20.5396C2.49702 20.5765 3.50281 20.5807 12.3903 20.5809C21.1515 20.581 22.2841 20.5765 22.3351 20.5413C22.4325 20.4739 22.4502 20.4014 22.4836 19.9342C22.5013 19.6859 22.533 19.3934 22.5539 19.2843C22.5748 19.1751 22.6107 18.925 22.6337 18.7286C22.6567 18.5321 22.6794 18.3645 22.6843 18.356C22.7054 18.319 22.7465 17.9632 22.7825 17.5057C22.804 17.2334 22.8285 16.9917 22.8368 16.9686C22.8458 16.9438 22.8287 16.9003 22.7953 16.8628L22.7385 16.7989L14.1659 16.7982C8.38259 16.7977 5.5779 16.7887 5.54563 16.7704C5.49105 16.7396 5.48305 16.6971 5.44602 16.2413C5.43123 16.0594 5.40302 15.8451 5.38336 15.7651C5.36368 15.685 5.32943 15.4486 5.30724 15.2399C5.28506 15.0311 5.25782 14.8347 5.24675 14.8033C5.22084 14.7302 5.20084 14.5457 5.16887 14.0857C5.15473 13.8824 5.12748 13.6502 5.10829 13.5697C5.08909 13.4892 5.06116 13.3003 5.04622 13.15C5.03127 12.9997 4.99697 12.7615 4.97002 12.6208C4.94304 12.4801 4.90293 12.1267 4.88086 11.8357C4.8588 11.5446 4.82455 11.2291 4.80474 11.1345C4.78491 11.0398 4.74635 10.7839 4.71902 10.5655C4.69171 10.3473 4.65817 10.1151 4.64453 10.0496C4.63087 9.98413 4.60719 9.75193 4.5919 9.53361C4.57661 9.31536 4.55319 9.08316 4.53988 9.01768C4.52654 8.95213 4.48866 8.69616 4.45568 8.44873C4.42271 8.20131 4.38368 7.95726 4.36891 7.90633C4.35414 7.85533 4.32446 7.57551 4.30292 7.28448C4.28138 6.99342 4.25305 6.68979 4.23996 6.60974C4.13087 5.94339 4.08892 5.5694 4.12082 5.54802C4.13922 5.53572 7.87191 5.52844 12.4157 5.53185L20.677 5.53809L20.6849 5.63934C20.6892 5.69501 20.67 5.8498 20.6423 5.98332C20.6145 6.11684 20.5845 6.31537 20.5755 6.42452C20.5666 6.53367 20.5376 6.73609 20.5111 6.87435C20.4847 7.0126 20.4519 7.29242 20.4383 7.49616C20.4247 7.69993 20.4016 7.93213 20.3871 8.01216C20.3726 8.09218 20.3297 8.38881 20.2919 8.67133C20.2339 9.10431 20.2154 9.19011 20.1743 9.21763C20.1361 9.24313 18.8257 9.25356 14.1603 9.26533C9.92486 9.27598 8.1873 9.28873 8.16797 9.30906C8.14907 9.32901 8.13869 9.89023 8.134 11.1453C8.12839 12.6357 8.13315 12.958 8.16101 12.9825C8.20698 13.0227 10.9258 13.0411 17.7865 13.0477C22.8549 13.0525 23.2733 13.0495 23.3116 13.0092C23.3414 12.9777 23.3624 12.8702 23.3865 12.6255C23.4049 12.4385 23.4317 12.22 23.4458 12.1399C23.4599 12.0599 23.4947 11.8099 23.5231 11.5843C23.5513 11.3587 23.585 11.1385 23.5977 11.0948C23.6105 11.0511 23.6387 10.7777 23.6604 10.4872C23.6821 10.1967 23.716 9.89901 23.7356 9.82566C23.7553 9.75238 23.784 9.56736 23.7994 9.41451C23.8149 9.26173 23.838 9.08316 23.8507 9.01761C23.903 8.75098 23.9231 8.59011 23.9482 8.23708C23.9627 8.03331 23.9915 7.75941 24.0122 7.62846C24.0328 7.49749 24.0777 7.1879 24.1118 6.9405C24.1459 6.69309 24.185 6.41328 24.1988 6.31868C24.2125 6.22408 24.2356 5.96212 24.2501 5.73657C24.2647 5.511 24.2925 5.27016 24.3119 5.20134C24.3312 5.13252 24.3657 4.91223 24.3885 4.7118C24.4113 4.51136 24.4463 4.28189 24.4662 4.20185C24.4861 4.12181 24.5136 3.88366 24.5271 3.67264C24.5408 3.46162 24.5737 3.14608 24.6003 2.97144C24.627 2.79681 24.6662 2.51992 24.6874 2.35616C24.7086 2.1924 24.7362 2.01033 24.7487 1.95158C24.7691 1.85611 24.7655 1.84061 24.7154 1.806C24.6664 1.77213 23.34 1.76726 14.1897 1.76745L3.72006 1.76763L3.69978 1.74219H0Z" fill="#49D0FF"/>
</svg>
