<svg width="99" height="41" viewBox="0 0 99 41" fill="none" xmlns="http://www.w3.org/2000/svg">
<g opacity="0.3">
<path d="M3.75143 20.3296L0.0109562 0.303781C-0.000907843 0.26646 -0.0031793 0.226752 0.00435036 0.188321C0.01188 0.14989 0.0289682 0.113976 0.0540389 0.0838915C0.0791097 0.0538066 0.111355 0.030521 0.147798 0.0161846C0.184241 0.0018482 0.223708 -0.00307738 0.262557 0.00186211H6.23054C6.3039 -0.00380475 6.37659 0.0192796 6.43325 0.0662315C6.4899 0.113183 6.52608 0.180323 6.53413 0.253463L8.50501 13.7544H9.51141L11.484 0.253463C11.4916 0.180151 11.5277 0.112753 11.5844 0.0657196C11.6412 0.018686 11.7141 -0.00423913 11.7876 0.00186211H17.7539C17.7927 -0.00293755 17.8322 0.00206417 17.8686 0.0164098C17.9051 0.0307555 17.9374 0.0539903 17.9625 0.083999C17.9877 0.114008 18.005 0.149836 18.0128 0.188224C18.0206 0.226611 18.0186 0.266334 18.0071 0.303781L14.7196 20.3296L18.0071 40.201C18.019 40.2386 18.0212 40.2785 18.0136 40.3171C18.0059 40.3557 17.9887 40.3918 17.9635 40.422C17.9383 40.4523 17.9059 40.4757 17.8692 40.4901C17.8326 40.5045 17.7929 40.5095 17.7539 40.5046H11.7926C11.7189 40.5107 11.6457 40.4875 11.5889 40.4401C11.5321 40.3928 11.4962 40.325 11.489 40.2513L9.51645 26.7504H8.51004L6.53917 40.2513C6.53152 40.3248 6.49551 40.3923 6.43881 40.4396C6.38211 40.4869 6.30919 40.5102 6.23557 40.5046H0.270945C0.232013 40.5092 0.192548 40.504 0.15615 40.4894C0.119751 40.4749 0.087578 40.4514 0.0625631 40.4212C0.0375482 40.3911 0.0204877 40.3551 0.0129385 40.3166C0.00538925 40.2782 0.00759143 40.2384 0.0193434 40.201L3.75143 20.3296Z" fill="white"/>
<path d="M19.6527 0.252106C19.6508 0.218556 19.656 0.184973 19.6679 0.153564C19.6799 0.122154 19.6983 0.0936293 19.7221 0.0698654C19.7459 0.0461015 19.7744 0.0276369 19.8058 0.0156825C19.8372 0.00372813 19.8708 -0.00144485 19.9043 0.000505135H25.973C26.0066 -0.00142203 26.0402 0.00375315 26.0717 0.0156927C26.1032 0.0276323 26.1318 0.0460698 26.1557 0.069804C26.1796 0.0935382 26.1983 0.122036 26.2104 0.153446C26.2225 0.184856 26.2279 0.218472 26.2262 0.252106L27.7929 22.7553H28.7993L30.1244 0.252106C30.1244 0.0508253 30.225 0.000505135 30.3777 0.000505135H34.9283C35.0793 0.000505135 35.1816 0.0508253 35.1816 0.252106L36.4983 22.7553H37.5047L39.073 0.252106C39.071 0.218406 39.0762 0.184672 39.0883 0.153139C39.1003 0.121606 39.119 0.0929962 39.1429 0.0692051C39.1669 0.0454139 39.1956 0.0269837 39.2272 0.0151399C39.2588 0.00329613 39.2926 -0.0016922 39.3263 0.000505135H45.3882C45.4219 -0.0016922 45.4556 0.00329613 45.4873 0.0151399C45.5189 0.0269837 45.5476 0.0454139 45.5715 0.0692051C45.5955 0.0929962 45.6141 0.121606 45.6262 0.153139C45.6382 0.184672 45.6434 0.218406 45.6415 0.252106L42.8621 40.1996C42.8643 40.2335 42.8593 40.2674 42.8474 40.2992C42.8354 40.3309 42.8168 40.3597 42.7929 40.3837C42.7689 40.4077 42.7401 40.4262 42.7083 40.4382C42.6766 40.4501 42.6427 40.4552 42.6088 40.4529H34.3664C34.2154 40.4529 34.1148 40.4026 34.1148 40.1996L33.1537 24.2649H32.1473L31.1861 40.1996C31.1861 40.4026 31.0855 40.4529 30.9329 40.4529H22.6854C22.6517 40.4549 22.6179 40.4497 22.5864 40.4376C22.5549 40.4256 22.5263 40.407 22.5025 40.383C22.4787 40.3591 22.4603 40.3303 22.4484 40.2987C22.4366 40.2671 22.4316 40.2333 22.4338 40.1996L19.6527 0.252106Z" fill="white"/>
<path d="M54.1209 23.2601V34.3842H60.4411C60.4749 34.3823 60.5087 34.3875 60.5403 34.3995C60.5719 34.4116 60.6006 34.4302 60.6245 34.4541C60.6484 34.478 60.667 34.5067 60.6791 34.5383C60.6911 34.5699 60.6963 34.6037 60.6944 34.6375V40.1996C60.6966 40.2334 60.6916 40.2673 60.6796 40.2991C60.6677 40.3308 60.6491 40.3596 60.6251 40.3836C60.6012 40.4076 60.5723 40.4261 60.5406 40.4381C60.5089 40.45 60.4749 40.4551 60.4411 40.4528H47.799C47.7653 40.4548 47.7315 40.4496 47.7 40.4375C47.6685 40.4255 47.6399 40.4069 47.6161 40.3829C47.5923 40.359 47.5739 40.3302 47.562 40.2986C47.5502 40.267 47.5452 40.2332 47.5474 40.1996V0.252002C47.5454 0.218452 47.5506 0.184869 47.5626 0.15346C47.5745 0.12205 47.593 0.0935254 47.6167 0.0697615C47.6405 0.0459976 47.669 0.027533 47.7004 0.0155786C47.7318 0.00362424 47.7654 -0.00154873 47.799 0.000401252H59.9362C59.9698 -0.00154873 60.0034 0.00362424 60.0348 0.0155786C60.0662 0.027533 60.0947 0.0459976 60.1185 0.0697615C60.1422 0.0935254 60.1607 0.12205 60.1726 0.15346C60.1846 0.184869 60.1898 0.218452 60.1878 0.252002V5.81574C60.1898 5.8493 60.1846 5.88288 60.1726 5.91429C60.1607 5.9457 60.1422 5.97422 60.1185 5.99798C60.0947 6.02174 60.0662 6.04021 60.0348 6.05217C60.0034 6.06412 59.9698 6.0693 59.9362 6.06735H54.1209V17.1915H58.9248C58.9584 17.1898 58.992 17.1952 59.0234 17.2073C59.0549 17.2195 59.0834 17.2381 59.1071 17.262C59.1308 17.2859 59.1493 17.3145 59.1612 17.346C59.1731 17.3775 59.1783 17.4111 59.1764 17.4447V23.0068C59.1786 23.0405 59.1736 23.0743 59.1618 23.1059C59.1499 23.1375 59.1315 23.1662 59.1077 23.1902C59.0839 23.2141 59.0553 23.2327 59.0238 23.2448C58.9922 23.2569 58.9585 23.2621 58.9248 23.2601H54.1209Z" fill="white"/>
<path d="M80.264 40.2031C80.264 40.406 80.1634 40.4563 80.0124 40.4563H73.9438C73.7928 40.4563 73.6905 40.406 73.6905 40.2031L73.1873 30.0904H69.6465L69.1433 40.2031C69.1433 40.406 69.0426 40.4563 68.89 40.4563H62.8197C62.667 40.4563 62.5664 40.406 62.5664 40.2031L64.7922 0.255507C64.7922 0.0542265 64.8929 0.00390625 65.0438 0.00390625H77.7916C77.9443 0.00390625 78.0449 0.0542265 78.0449 0.255507L80.264 40.2031ZM70.0004 24.0218H72.8317L71.9209 6.0742H70.9145L70.0004 24.0218Z" fill="white"/>
<path d="M98.8004 40.4529H92.6312C92.5687 40.4445 92.5089 40.4219 92.4565 40.3867C92.4042 40.3515 92.3606 40.3047 92.3293 40.25C91.6717 39.2436 91.6717 37.4689 91.6717 36.5095L91.7724 22.2521H88.7381V40.1996C88.7403 40.2335 88.7353 40.2674 88.7233 40.2992C88.7114 40.3309 88.6928 40.3597 88.6688 40.3837C88.6448 40.4077 88.616 40.4262 88.5843 40.4382C88.5526 40.4501 88.5186 40.4552 88.4848 40.4529H82.4179C82.384 40.4552 82.3501 40.4501 82.3184 40.4382C82.2866 40.4262 82.2578 40.4077 82.2338 40.3837C82.2098 40.3597 82.1913 40.3309 82.1793 40.2992C82.1674 40.2674 82.1624 40.2335 82.1646 40.1996V0.252106C82.1626 0.218406 82.1678 0.184672 82.1799 0.153139C82.1919 0.121606 82.2105 0.0929962 82.2345 0.0692051C82.2584 0.0454139 82.2872 0.0269837 82.3188 0.0151399C82.3504 0.00329613 82.3842 -0.0016922 82.4179 0.000505135H93.2887C97.3344 0.000505135 98.3459 3.03314 98.3459 8.09032V15.0681C98.3459 17.7988 96.7776 18.6089 95.9691 18.7096V19.716C96.7272 19.8166 98.3459 20.6251 98.3459 23.3558V36.5045C98.3459 37.3633 98.3459 39.1329 98.9531 40.1443C98.9774 40.172 98.993 40.2063 98.9978 40.2429C99.0026 40.2795 98.9965 40.3167 98.9801 40.3497C98.9637 40.3828 98.9379 40.4103 98.9059 40.4286C98.874 40.447 98.8372 40.4555 98.8004 40.4529ZM91.7724 16.1818V6.06745H88.7381V16.1818H91.7724Z" fill="white"/>
</g>
</svg>
