<svg width="84" height="35" viewBox="0 0 84 35" fill="none" xmlns="http://www.w3.org/2000/svg">
<path d="M3.18184 17.2429L0.00929272 0.257658C-0.000770003 0.226003 -0.00269658 0.192324 0.00368984 0.159728C0.0100763 0.127132 0.0245699 0.0966711 0.0458341 0.0711541C0.0670983 0.045637 0.0944477 0.025887 0.125358 0.0137273C0.156268 0.00156759 0.189742 -0.00261013 0.222693 0.00157938H5.28454C5.34677 -0.00322707 5.40842 0.0163523 5.45648 0.0561754C5.50453 0.0959985 5.53521 0.152945 5.54204 0.214979L7.21368 11.666H8.06728L9.74034 0.214979C9.74682 0.152798 9.77741 0.0956337 9.82555 0.0557413C9.87368 0.0158489 9.93553 -0.00359549 9.99784 0.00157938H15.0583C15.0912 -0.00249154 15.1247 0.00175076 15.1556 0.0139183C15.1865 0.0260858 15.2139 0.0457929 15.2353 0.0712453C15.2566 0.0966976 15.2713 0.127086 15.2779 0.159645C15.2845 0.192204 15.2828 0.225896 15.2731 0.257658L12.4847 17.2429L15.2731 34.0972C15.2831 34.1291 15.285 34.1629 15.2785 34.1957C15.2721 34.2284 15.2575 34.2591 15.2361 34.2847C15.2147 34.3103 15.1872 34.3302 15.1561 34.3424C15.125 34.3547 15.0914 34.3589 15.0583 34.3547H10.0021C9.93958 34.3599 9.87753 34.3402 9.82936 34.3C9.78118 34.2599 9.75074 34.2023 9.7446 34.1399L8.07155 22.6889H7.21795L5.54631 34.1399C5.53982 34.2022 5.50929 34.2595 5.4612 34.2996C5.41311 34.3397 5.35126 34.3595 5.28881 34.3547H0.229807C0.196786 34.3586 0.163313 34.3542 0.132441 34.3418C0.101569 34.3295 0.0742809 34.3096 0.053064 34.284C0.0318471 34.2584 0.017377 34.2279 0.010974 34.1953C0.00457099 34.1627 0.00643881 34.1289 0.0164065 34.0972L3.18184 17.2429Z" fill="#49D0FF"/>
<path d="M16.6722 0.213828C16.6706 0.185372 16.6749 0.156888 16.6851 0.130248C16.6952 0.103607 16.7109 0.0794134 16.731 0.0592576C16.7512 0.0391018 16.7754 0.0234407 16.802 0.0133014C16.8287 0.00316208 16.8572 -0.00122548 16.8856 0.000428439H22.0328C22.0613 -0.00120612 22.0899 0.00318331 22.1166 0.0133101C22.1433 0.0234368 22.1676 0.0390749 22.1878 0.0592055C22.2081 0.0793361 22.2239 0.103507 22.2342 0.130148C22.2445 0.156789 22.2491 0.185301 22.2476 0.213828L23.5764 19.3003H24.43L25.5539 0.213828C25.5539 0.0431084 25.6393 0.000428439 25.7687 0.000428439H29.6284C29.7565 0.000428439 29.8433 0.0431084 29.8433 0.213828L30.9601 19.3003H31.8137L33.1439 0.213828C33.1422 0.185245 33.1466 0.156633 33.1568 0.129887C33.167 0.103142 33.1828 0.0788764 33.2032 0.0586975C33.2235 0.0385186 33.2478 0.0228867 33.2747 0.0128412C33.3015 0.00279567 33.3301 -0.00143527 33.3587 0.000428439H38.5002C38.5288 -0.00143527 38.5574 0.00279567 38.5842 0.0128412C38.611 0.0228867 38.6354 0.0385186 38.6557 0.0586975C38.676 0.0788764 38.6918 0.103142 38.702 0.129887C38.7123 0.156633 38.7167 0.185245 38.715 0.213828L36.3577 34.0961C36.3595 34.1248 36.3553 34.1535 36.3451 34.1805C36.335 34.2074 36.3193 34.2318 36.2989 34.2522C36.2786 34.2725 36.2541 34.2883 36.2272 34.2984C36.2003 34.3085 36.1715 34.3128 36.1428 34.3109H29.1519C29.0238 34.3109 28.9385 34.2682 28.9385 34.0961L28.1233 20.5807H27.2697L26.4545 34.0961C26.4545 34.2682 26.3691 34.3109 26.2397 34.3109H19.2444C19.2158 34.3126 19.1872 34.3081 19.1605 34.2979C19.1337 34.2877 19.1094 34.2719 19.0893 34.2516C19.0691 34.2313 19.0535 34.2069 19.0434 34.1801C19.0334 34.1533 19.0291 34.1246 19.031 34.0961L16.6722 0.213828Z" fill="white"/>
<path d="M45.904 19.7285V29.1636H51.2646C51.2932 29.1619 51.3219 29.1664 51.3487 29.1766C51.3755 29.1868 51.3999 29.2026 51.4202 29.2228C51.4405 29.2431 51.4562 29.2675 51.4664 29.2943C51.4766 29.3211 51.4811 29.3498 51.4794 29.3784V34.096C51.4813 34.1247 51.477 34.1535 51.4669 34.1804C51.4568 34.2073 51.441 34.2317 51.4207 34.2521C51.4003 34.2724 51.3759 34.2882 51.349 34.2983C51.3221 34.3084 51.2933 34.3127 51.2646 34.3108H40.542C40.5134 34.3125 40.4848 34.3081 40.458 34.2978C40.4313 34.2876 40.407 34.2718 40.3868 34.2515C40.3666 34.2312 40.351 34.2068 40.341 34.18C40.3309 34.1532 40.3267 34.1245 40.3286 34.096V0.21374C40.3269 0.185284 40.3313 0.1568 40.3414 0.13016C40.3516 0.103519 40.3672 0.0793253 40.3874 0.0591695C40.4075 0.0390137 40.4317 0.0233526 40.4584 0.0132133C40.485 0.00307397 40.5135 -0.00131359 40.542 0.000340329H50.8364C50.8648 -0.00131359 50.8933 0.00307397 50.92 0.0132133C50.9466 0.0233526 50.9708 0.0390137 50.9909 0.0591695C51.0111 0.0793253 51.0268 0.103519 51.0369 0.13016C51.047 0.1568 51.0514 0.185284 51.0498 0.21374V4.93273C51.0514 4.96119 51.047 4.98967 51.0369 5.01631C51.0268 5.04295 51.0111 5.06714 50.9909 5.0873C50.9708 5.10745 50.9466 5.12312 50.92 5.13326C50.8933 5.1434 50.8648 5.14778 50.8364 5.14613H45.904V14.5813H49.9785C50.007 14.5798 50.0355 14.5844 50.0622 14.5947C50.0888 14.605 50.113 14.6208 50.1331 14.6411C50.1533 14.6613 50.1689 14.6856 50.179 14.7123C50.1892 14.739 50.1935 14.7676 50.1919 14.7961V19.5136C50.1938 19.5422 50.1895 19.5709 50.1795 19.5977C50.1694 19.6245 50.1538 19.6489 50.1336 19.6692C50.1135 19.6895 50.0892 19.7053 50.0624 19.7155C50.0357 19.7257 50.0071 19.7301 49.9785 19.7285H45.904Z" fill="white"/>
<path d="M68.077 34.0956C68.077 34.2678 67.9916 34.3105 67.8636 34.3105H62.7164C62.5883 34.3105 62.5015 34.2678 62.5015 34.0956L62.0747 25.5184H59.0715L58.6447 34.0956C58.6447 34.2678 58.5593 34.3105 58.4299 34.3105H53.2812C53.1518 34.3105 53.0664 34.2678 53.0664 34.0956L54.9543 0.2134C54.9543 0.04268 55.0396 0 55.1677 0H65.9799C66.1094 0 66.1948 0.04268 66.1948 0.2134L68.077 34.0956ZM59.3717 20.3712H61.7731L61.0006 5.14863H60.147L59.3717 20.3712Z" fill="white"/>
<path d="M83.7979 34.3109H78.5654C78.5123 34.3038 78.4617 34.2845 78.4173 34.2547C78.3728 34.2248 78.3359 34.1852 78.3093 34.1387C77.7516 33.2851 77.7516 31.78 77.7516 30.9662L77.837 18.8735H75.2634V34.0961C75.2653 34.1248 75.261 34.1535 75.2509 34.1805C75.2407 34.2074 75.225 34.2318 75.2046 34.2522C75.1843 34.2725 75.1599 34.2883 75.1329 34.2984C75.106 34.3085 75.0772 34.3128 75.0485 34.3109H69.9028C69.8741 34.3128 69.8453 34.3085 69.8184 34.2984C69.7915 34.2883 69.767 34.2725 69.7467 34.2522C69.7263 34.2318 69.7106 34.2074 69.7004 34.1805C69.6903 34.1535 69.686 34.1248 69.6879 34.0961V0.213828C69.6863 0.185245 69.6907 0.156633 69.7009 0.129887C69.7111 0.103142 69.7269 0.0788764 69.7472 0.0586975C69.7675 0.0385186 69.7919 0.0228867 69.8187 0.0128412C69.8455 0.00279567 69.8742 -0.00143527 69.9028 0.000428439H79.1231C82.5545 0.000428439 83.4124 2.57261 83.4124 6.86195V12.7802C83.4124 15.0963 82.0822 15.7835 81.3965 15.8689V16.7225C82.0395 16.8078 83.4124 17.4935 83.4124 19.8096V30.9619C83.4124 31.6903 83.4124 33.1913 83.9274 34.0491C83.9481 34.0726 83.9613 34.1017 83.9653 34.1327C83.9694 34.1638 83.9642 34.1953 83.9503 34.2234C83.9365 34.2514 83.9146 34.2747 83.8874 34.2903C83.8603 34.3059 83.8292 34.313 83.7979 34.3109ZM77.837 13.7249V5.14622H75.2634V13.7249H77.837Z" fill="white"/>
</svg>
