<svg width="65" height="45" viewBox="0 0 65 45" fill="none" xmlns="http://www.w3.org/2000/svg">
<rect x="0.5" y="0.5" width="64" height="44" stroke="#EEEEEE"/>
<path d="M22.5 35C29.404 35 35 29.4036 35 22.5C35 15.5964 29.404 10 22.5 10C15.596 10 10 15.5964 10 22.5C10 29.4036 15.596 35 22.5 35Z" fill="#EC0020"/>
<path d="M42.5 35C49.404 35 55 29.4036 55 22.5C55 15.5964 49.404 10 42.5 10C35.596 10 30 15.5964 30 22.5C30 29.4036 35.596 35 42.5 35Z" fill="#FE9A0C"/>
<path fill-rule="evenodd" clip-rule="evenodd" d="M18.561 25.9598H17.443L18.466 20.2678H18.447L16.357 25.9598H15L14.975 20.2678H14.956L14.126 25.9598H13L14.225 18.9688H15.975L16.05 24.4148H16.069L18.052 18.9688H19.782L18.564 25.9598H18.561ZM26.984 22.0598C26.49 21.9617 25.987 21.9251 25.484 21.9508C24.878 22.0238 24.746 22.2068 24.708 22.4188C24.569 23.2018 27.328 22.4508 26.993 24.2648C26.906 24.7698 26.638 25.226 26.24 25.5482C25.841 25.8704 25.339 26.0366 24.827 26.0158C24.221 26.0605 23.613 25.9784 23.041 25.7748L23.205 24.8168C23.767 24.9372 24.342 24.9889 24.916 24.9708C25.103 24.9885 25.291 24.9505 25.456 24.8615C25.621 24.7725 25.756 24.6365 25.844 24.4708C25.996 23.6448 23.244 24.2708 23.577 22.4228C23.667 21.9692 23.925 21.5665 24.3 21.2961C24.676 21.0256 25.139 20.9076 25.598 20.9658C26.12 20.9718 26.639 21.0506 27.139 21.1998L26.987 22.0618L26.984 22.0598ZM27.616 21.8288L28.026 19.9818H29.144L28.904 20.9068H29.6L29.43 21.8278H28.73L28.238 24.4968C28.187 24.7898 28.175 24.8968 28.629 24.8968C28.708 24.8964 28.786 24.889 28.863 24.8748L28.705 25.8688C28.528 25.8768 28.326 26.0008 28.149 26.0008H28.01C27.856 26.0334 27.695 26.0222 27.547 25.9684C27.398 25.9146 27.268 25.8205 27.17 25.6965C27.072 25.5726 27.011 25.4238 26.993 25.2669C26.976 25.1101 27.002 24.9514 27.07 24.8088L27.613 21.8248L27.616 21.8288ZM30.31 23.9588C30.264 24.0831 30.25 24.217 30.27 24.348C30.289 24.4791 30.341 24.6033 30.42 24.7093C30.5 24.8152 30.604 24.8996 30.725 24.9547C30.845 25.0098 30.978 25.0339 31.11 25.0248C31.806 25.0725 32.497 24.8728 33.061 24.4608L32.884 25.3828C32.312 25.8065 31.604 26.0067 30.895 25.9458C29.702 25.9458 28.895 25.2808 29.272 23.2618C29.386 22.6698 29.91 20.7678 31.766 20.7678C32.606 20.7678 33.68 21.4868 33.266 23.7328L33.228 23.9588H30.31ZM32.231 22.9998C32.314 22.1998 31.916 21.8368 31.556 21.8368C31.278 21.8907 31.025 22.0332 30.835 22.2428C30.644 22.4524 30.527 22.718 30.5 22.9998H32.236H32.231ZM33.968 20.9948H35.035L34.877 21.7488H34.9C35.016 21.4803 35.201 21.2481 35.438 21.0768C35.675 20.9055 35.954 20.8015 36.245 20.7758C36.321 20.7758 36.485 20.8128 36.555 20.8198L36.144 22.0998C35.97 22.0731 35.792 22.0822 35.621 22.1265C35.45 22.1708 35.29 22.2494 35.151 22.3574C35.012 22.4654 34.896 22.6007 34.81 22.755C34.725 22.9093 34.672 23.0793 34.654 23.2548L34.187 26.0088H33.069L33.969 20.9948H33.968ZM40.718 20.4618C40.304 20.1976 39.803 20.108 39.323 20.2128C38.755 20.3128 37.823 20.6518 37.473 22.5308C37.296 23.4888 37.391 24.6368 38.312 24.8558C38.63 24.9347 38.961 24.9436 39.283 24.8817C39.605 24.8199 39.909 24.6889 40.175 24.4978L39.875 25.7048C39.742 25.7558 39.622 26.0928 38.24 26.0048C36.712 25.9048 35.834 24.8048 36.257 22.5098C36.68 20.1918 38.057 18.9917 39.54 19.0098C39.801 19.0098 40.06 19.0651 40.298 19.1721C40.536 19.2792 40.749 19.4355 40.923 19.6308L40.723 20.4648L40.718 20.4618ZM50.796 25.9618H49.7L49.813 25.2068H49.8C49.652 25.435 49.449 25.6223 49.21 25.7513C48.97 25.8803 48.702 25.9468 48.43 25.9448C47.167 25.9448 46.876 24.6578 47.122 23.3058C47.438 21.6058 48.422 20.7668 49.358 20.7668C49.6 20.7521 49.839 20.8203 50.036 20.9601C50.234 21.1 50.378 21.3031 50.444 21.5358H50.463L50.892 18.9857H52.01L50.8 25.9598L50.796 25.9618ZM48.902 24.8848C49.243 24.8337 49.555 24.6642 49.784 24.406C50.012 24.1479 50.143 23.8175 50.152 23.4728C50.297 22.6828 50.247 21.8858 49.483 21.8858C49.134 21.9559 48.821 22.1457 48.597 22.4224C48.374 22.699 48.254 23.0451 48.258 23.4008C48.15 23.9778 48.188 24.8848 48.902 24.8848ZM44.052 24.7748C44.052 24.7748 43.945 25.3018 43.92 25.5648L43.863 26.0078H42.872C42.849 25.751 42.849 25.4926 42.872 25.2358C42.686 25.4531 42.456 25.6287 42.198 25.7509C41.939 25.8731 41.658 25.9392 41.372 25.9448C41.197 25.9544 41.023 25.92 40.865 25.8446C40.706 25.7692 40.57 25.6552 40.467 25.5133C40.365 25.3713 40.3 25.2058 40.278 25.032C40.256 24.8583 40.278 24.6818 40.342 24.5188C40.386 24.1243 40.561 23.7558 40.838 23.4712C41.114 23.1867 41.478 23.0022 41.871 22.9468L42.906 22.7708C43.089 22.7418 43.316 22.8808 43.373 22.6028C43.393 22.5147 43.391 22.423 43.367 22.3359C43.343 22.2488 43.297 22.1691 43.235 22.1039C43.172 22.0387 43.094 21.99 43.008 21.9622C42.922 21.9345 42.831 21.9285 42.742 21.9448C42.155 21.9226 41.57 22.0326 41.031 22.2668L41.283 21.3088C41.836 21.0404 42.452 20.9287 43.064 20.9858C43.664 21.0088 44.718 21.1988 44.516 22.3858L44.055 24.7698L44.052 24.7748ZM43.175 23.4218C42.93 23.5728 42.653 23.6633 42.366 23.6858C42.154 23.685 41.948 23.7593 41.785 23.8957C41.622 24.032 41.513 24.2216 41.476 24.4308C41.448 24.497 41.437 24.5693 41.444 24.6409C41.451 24.7126 41.476 24.7812 41.517 24.8405C41.558 24.8997 41.614 24.9476 41.678 24.9796C41.743 25.0117 41.814 25.0269 41.886 25.0238C42.163 25.0179 42.43 24.9185 42.643 24.7419C42.856 24.5653 43.004 24.3217 43.061 24.0508L43.175 23.4218ZM45.088 20.9938H46.155L46 21.8398H46.019C46.135 21.5714 46.321 21.3392 46.557 21.1679C46.794 20.9966 47.073 20.8926 47.364 20.8668C47.44 20.8668 47.604 20.9038 47.674 20.9108L47.263 22.1898C47.184 22.1769 47.103 22.1719 47.023 22.1748C46.87 22.1623 46.716 22.1803 46.57 22.2278C46.424 22.2753 46.289 22.3514 46.173 22.4516C46.056 22.5519 45.961 22.6742 45.892 22.8116C45.824 22.949 45.783 23.0986 45.773 23.2518L45.306 26.0058H44.188L45.088 20.9918V20.9938ZM22.788 24.7748C22.788 24.7748 22.681 25.3018 22.655 25.5648L22.599 26.0088H21.6C21.578 25.7516 21.578 25.493 21.6 25.2358C21.419 25.4632 21.191 25.6497 20.933 25.7827C20.674 25.9158 20.39 25.9925 20.1 26.0078C19.922 26.0078 19.747 25.9646 19.589 25.882C19.431 25.7993 19.296 25.6796 19.195 25.5332C19.094 25.3867 19.03 25.2179 19.008 25.0413C18.986 24.8646 19.008 24.6853 19.071 24.5188C19.115 24.1245 19.29 23.7561 19.566 23.4715C19.843 23.187 20.206 23.0024 20.599 22.9468L21.635 22.7708C21.745 22.7664 21.849 22.7261 21.934 22.6562C22.018 22.5863 22.077 22.4906 22.102 22.3838C22.197 21.8358 21.755 21.9208 21.471 21.9128C20.883 21.891 20.298 22.001 19.759 22.2348L20.012 21.2768C20.565 21.0086 21.181 20.8973 21.793 20.9548C22.393 20.9778 23.447 21.1678 23.245 22.3548L22.784 24.7708L22.788 24.7748ZM21.91 23.4218C21.666 23.573 21.389 23.6636 21.102 23.6858C20.89 23.685 20.684 23.7593 20.521 23.8957C20.358 24.032 20.249 24.2216 20.212 24.4308C20.184 24.497 20.173 24.5693 20.18 24.6409C20.187 24.7126 20.212 24.7812 20.253 24.8405C20.294 24.8997 20.35 24.9476 20.414 24.9796C20.479 25.0117 20.55 25.0269 20.622 25.0238C20.899 25.0179 21.166 24.9185 21.379 24.7419C21.592 24.5653 21.74 24.3217 21.797 24.0508L21.91 23.4218Z" fill="white"/>
<path fill-rule="evenodd" clip-rule="evenodd" d="M18.561 25.9598H17.443L18.466 20.2678H18.447L16.357 25.9598H15L14.975 20.2678H14.956L14.126 25.9598H13L14.225 18.9688H15.975L16.05 24.4148H16.069L18.052 18.9688H19.782L18.564 25.9598H18.561ZM26.984 22.0598C26.49 21.9617 25.987 21.9251 25.484 21.9508C24.878 22.0238 24.746 22.2068 24.708 22.4188C24.569 23.2018 27.328 22.4508 26.993 24.2648C26.906 24.7698 26.638 25.226 26.24 25.5482C25.841 25.8704 25.339 26.0366 24.827 26.0158C24.221 26.0605 23.613 25.9784 23.041 25.7748L23.205 24.8168C23.767 24.9372 24.342 24.9889 24.916 24.9708C25.103 24.9885 25.291 24.9505 25.456 24.8615C25.621 24.7725 25.756 24.6365 25.844 24.4708C25.996 23.6448 23.244 24.2708 23.577 22.4228C23.667 21.9692 23.925 21.5665 24.3 21.2961C24.676 21.0256 25.139 20.9076 25.598 20.9658C26.12 20.9718 26.639 21.0506 27.139 21.1998L26.987 22.0618L26.984 22.0598ZM27.616 21.8288L28.026 19.9818H29.144L28.904 20.9068H29.6L29.43 21.8278H28.73L28.238 24.4968C28.187 24.7898 28.175 24.8968 28.629 24.8968C28.708 24.8964 28.786 24.889 28.863 24.8748L28.705 25.8688C28.528 25.8768 28.326 26.0008 28.149 26.0008H28.01C27.856 26.0334 27.695 26.0222 27.547 25.9684C27.398 25.9146 27.268 25.8205 27.17 25.6965C27.072 25.5726 27.011 25.4238 26.993 25.2669C26.976 25.1101 27.002 24.9514 27.07 24.8088L27.613 21.8248L27.616 21.8288ZM30.31 23.9588C30.264 24.0831 30.25 24.217 30.27 24.348C30.289 24.4791 30.341 24.6033 30.42 24.7093C30.5 24.8152 30.604 24.8996 30.725 24.9547C30.845 25.0098 30.978 25.0339 31.11 25.0248C31.806 25.0725 32.497 24.8728 33.061 24.4608L32.884 25.3828C32.312 25.8065 31.604 26.0067 30.895 25.9458C29.702 25.9458 28.895 25.2808 29.272 23.2618C29.386 22.6698 29.91 20.7678 31.766 20.7678C32.606 20.7678 33.68 21.4868 33.266 23.7328L33.228 23.9588H30.31ZM32.231 22.9998C32.314 22.1998 31.916 21.8368 31.556 21.8368C31.278 21.8907 31.025 22.0332 30.835 22.2428C30.644 22.4524 30.527 22.718 30.5 22.9998H32.236H32.231ZM33.968 20.9948H35.035L34.877 21.7488H34.9C35.016 21.4803 35.201 21.2481 35.438 21.0768C35.675 20.9055 35.954 20.8015 36.245 20.7758C36.321 20.7758 36.485 20.8128 36.555 20.8198L36.144 22.0998C35.97 22.0731 35.792 22.0822 35.621 22.1265C35.45 22.1708 35.29 22.2494 35.151 22.3574C35.012 22.4654 34.896 22.6007 34.81 22.755C34.725 22.9093 34.672 23.0793 34.654 23.2548L34.187 26.0088H33.069L33.969 20.9948H33.968ZM40.718 20.4618C40.304 20.1976 39.803 20.108 39.323 20.2128C38.755 20.3128 37.823 20.6518 37.473 22.5308C37.296 23.4888 37.391 24.6368 38.312 24.8558C38.63 24.9347 38.961 24.9436 39.283 24.8817C39.605 24.8199 39.909 24.6889 40.175 24.4978L39.875 25.7048C39.742 25.7558 39.622 26.0928 38.24 26.0048C36.712 25.9048 35.834 24.8048 36.257 22.5098C36.68 20.1918 38.057 18.9917 39.54 19.0098C39.801 19.0098 40.06 19.0651 40.298 19.1721C40.536 19.2792 40.749 19.4355 40.923 19.6308L40.723 20.4648L40.718 20.4618ZM50.796 25.9618H49.7L49.813 25.2068H49.8C49.652 25.435 49.449 25.6223 49.21 25.7513C48.97 25.8803 48.702 25.9468 48.43 25.9448C47.167 25.9448 46.876 24.6578 47.122 23.3058C47.438 21.6058 48.422 20.7668 49.358 20.7668C49.6 20.7521 49.839 20.8203 50.036 20.9601C50.234 21.1 50.378 21.3031 50.444 21.5358H50.463L50.892 18.9857H52.01L50.8 25.9598L50.796 25.9618ZM48.902 24.8848C49.243 24.8337 49.555 24.6642 49.784 24.406C50.012 24.1479 50.143 23.8175 50.152 23.4728C50.297 22.6828 50.247 21.8858 49.483 21.8858C49.134 21.9559 48.821 22.1457 48.597 22.4224C48.374 22.699 48.254 23.0451 48.258 23.4008C48.15 23.9778 48.188 24.8848 48.902 24.8848ZM44.052 24.7748C44.052 24.7748 43.945 25.3018 43.92 25.5648L43.863 26.0078H42.872C42.849 25.751 42.849 25.4926 42.872 25.2358C42.686 25.4531 42.456 25.6287 42.198 25.7509C41.939 25.8731 41.658 25.9392 41.372 25.9448C41.197 25.9544 41.023 25.92 40.865 25.8446C40.706 25.7692 40.57 25.6552 40.467 25.5133C40.365 25.3713 40.3 25.2058 40.278 25.032C40.256 24.8583 40.278 24.6818 40.342 24.5188C40.386 24.1243 40.561 23.7558 40.838 23.4712C41.114 23.1867 41.478 23.0022 41.871 22.9468L42.906 22.7708C43.089 22.7418 43.316 22.8808 43.373 22.6028C43.393 22.5147 43.391 22.423 43.367 22.3359C43.343 22.2488 43.297 22.1691 43.235 22.1039C43.172 22.0387 43.094 21.99 43.008 21.9622C42.922 21.9345 42.831 21.9285 42.742 21.9448C42.155 21.9226 41.57 22.0326 41.031 22.2668L41.283 21.3088C41.836 21.0404 42.452 20.9287 43.064 20.9858C43.664 21.0088 44.718 21.1988 44.516 22.3858L44.055 24.7698L44.052 24.7748ZM43.175 23.4218C42.93 23.5728 42.653 23.6633 42.366 23.6858C42.154 23.685 41.948 23.7593 41.785 23.8957C41.622 24.032 41.513 24.2216 41.476 24.4308C41.448 24.497 41.437 24.5693 41.444 24.6409C41.451 24.7126 41.476 24.7812 41.517 24.8405C41.558 24.8997 41.614 24.9476 41.678 24.9796C41.743 25.0117 41.814 25.0269 41.886 25.0238C42.163 25.0179 42.43 24.9185 42.643 24.7419C42.856 24.5653 43.004 24.3217 43.061 24.0508L43.175 23.4218ZM45.088 20.9938H46.155L46 21.8398H46.019C46.135 21.5714 46.321 21.3392 46.557 21.1679C46.794 20.9966 47.073 20.8926 47.364 20.8668C47.44 20.8668 47.604 20.9038 47.674 20.9108L47.263 22.1898C47.184 22.1769 47.103 22.1719 47.023 22.1748C46.87 22.1623 46.716 22.1803 46.57 22.2278C46.424 22.2753 46.289 22.3514 46.173 22.4516C46.056 22.5519 45.961 22.6742 45.892 22.8116C45.824 22.949 45.783 23.0986 45.773 23.2518L45.306 26.0058H44.188L45.088 20.9918V20.9938ZM22.788 24.7748C22.788 24.7748 22.681 25.3018 22.655 25.5648L22.599 26.0088H21.6C21.578 25.7516 21.578 25.493 21.6 25.2358C21.419 25.4632 21.191 25.6497 20.933 25.7827C20.674 25.9158 20.39 25.9925 20.1 26.0078C19.922 26.0078 19.747 25.9646 19.589 25.882C19.431 25.7993 19.296 25.6796 19.195 25.5332C19.094 25.3867 19.03 25.2179 19.008 25.0413C18.986 24.8646 19.008 24.6853 19.071 24.5188C19.115 24.1245 19.29 23.7561 19.566 23.4715C19.843 23.187 20.206 23.0024 20.599 22.9468L21.635 22.7708C21.745 22.7664 21.849 22.7261 21.934 22.6562C22.018 22.5863 22.077 22.4906 22.102 22.3838C22.197 21.8358 21.755 21.9208 21.471 21.9128C20.883 21.891 20.298 22.001 19.759 22.2348L20.012 21.2768C20.565 21.0086 21.181 20.8973 21.793 20.9548C22.393 20.9778 23.447 21.1678 23.245 22.3548L22.784 24.7708L22.788 24.7748ZM21.91 23.4218C21.666 23.573 21.389 23.6636 21.102 23.6858C20.89 23.685 20.684 23.7593 20.521 23.8957C20.358 24.032 20.249 24.2216 20.212 24.4308C20.184 24.497 20.173 24.5693 20.18 24.6409C20.187 24.7126 20.212 24.7812 20.253 24.8405C20.294 24.8997 20.35 24.9476 20.414 24.9796C20.479 25.0117 20.55 25.0269 20.622 25.0238C20.899 25.0179 21.166 24.9185 21.379 24.7419C21.592 24.5653 21.74 24.3217 21.797 24.0508L21.91 23.4218Z" fill="white"/>
</svg>
