<svg width="74" height="45" viewBox="0 0 74 45" fill="none" xmlns="http://www.w3.org/2000/svg">
<rect x="0.5" y="0.5" width="72.7225" height="44" stroke="#EEEEEE"/>
<path fill-rule="evenodd" clip-rule="evenodd" d="M59.6325 31.0417C59.6325 31.0417 59.2415 28.6557 59.1105 28.0577H53.4575C53.3015 28.5257 52.5205 31.0417 52.5205 31.0417H47.9085L54.4485 15.4467C54.6109 14.9832 54.9265 14.5889 55.3435 14.3289C55.7595 14.0689 56.2525 13.9588 56.7405 14.0167H60.1535L63.7225 31.0417H59.6325ZM57.3655 20.0717L57.0525 18.6157C56.8445 19.2657 56.4525 20.2797 56.4795 20.2537C56.4795 20.2537 55.0725 24.0217 54.7345 25.0087H58.3815C58.2015 24.1487 57.3655 20.0717 57.3655 20.0717ZM47.8825 17.9417C46.8526 17.4768 45.7298 17.2545 44.6005 17.2917C42.8545 17.2917 42.0725 18.0197 42.0465 18.7467C42.0465 19.5527 42.9855 20.0717 44.5465 20.8517C47.0745 22.0517 48.2465 23.5277 48.2205 25.4757C48.1945 28.9837 45.1985 31.2697 40.5605 31.2697C38.8848 31.2752 37.2229 30.9673 35.6605 30.3617L36.2605 26.5417L36.8605 26.8277C38.1397 27.4564 39.5515 27.7682 40.9765 27.7367C42.2535 27.7367 43.6075 27.2167 43.6345 26.0737C43.6345 25.3207 43.0615 24.7737 41.3415 23.9437C39.6745 23.1377 37.4595 21.7867 37.4855 19.3437C37.5115 16.0437 40.5595 13.7307 44.9105 13.7307C46.262 13.7226 47.6037 13.9598 48.8705 14.4307L48.2705 18.1207L47.8825 17.9417ZM28.5005 31.0417L31.2615 14.0167H35.6615L32.9015 31.0417H28.5005ZM17.9005 31.0417L13.9745 16.2727C13.8405 16.1947 13.6995 16.1237 13.5625 16.0487H16.1905L17.1615 16.7357L18.9425 19.4547L19.6985 21.5427L20.0375 23.2677L20.5065 25.6067L24.8305 14.0167H29.4945L22.5645 31.0417H17.9015H17.9005Z" fill="#1470B0"/>
<path fill-rule="evenodd" clip-rule="evenodd" d="M15.9 18.257C15.3727 17.8424 14.8052 17.4816 14.206 17.18L13.955 16.236C12.7094 15.5218 11.3812 14.9623 10 14.57V14.043H16.764C17.1687 14.0439 17.5609 14.1834 17.8754 14.438C18.1899 14.6927 18.4079 15.0473 18.493 15.443L19.957 22.897C18.8744 21.1337 17.503 19.5652 15.9 18.257Z" fill="#FFB927"/>
</svg>
