<svg width="87" height="45" viewBox="0 0 87 45" fill="none" xmlns="http://www.w3.org/2000/svg">
<rect x="1.22266" y="0.5" width="84.9834" height="44" stroke="#EEEEEE"/>
<path fill-rule="evenodd" clip-rule="evenodd" d="M27.2687 31.0001V20.9001H26.8226L23.6227 31.0001H19.8226H19.8116L16.6227 20.9001H16.1796V31.0001H10.7227V14.0001H16.1877C16.8687 13.9971 17.5327 14.2132 18.0817 14.6165C18.6307 15.0199 19.0356 15.5891 19.2366 16.2401L21.4827 24.0971H21.9556L24.2056 16.2401C24.4076 15.5871 24.8146 15.0166 25.3666 14.6132C25.9186 14.2097 26.5857 13.9947 27.2687 14.0001H32.7336V31.0001H27.2687Z" fill="#52B461"/>
<path fill-rule="evenodd" clip-rule="evenodd" d="M48.1727 31V20.989H47.7418L44.0148 29.376C43.7958 29.8605 43.4418 30.2716 42.9948 30.5596C42.5468 30.8477 42.0268 31.0006 41.4948 31H36.7188V14H42.2188V24.011H42.6697L46.4437 15.611C46.4537 15.589 46.4628 15.568 46.4728 15.547V15.541C46.7008 15.0778 47.0548 14.6879 47.4938 14.4155C47.9318 14.1431 48.4388 13.9992 48.9548 14H53.7308V31H48.1727Z" fill="#52B461"/>
<path fill-rule="evenodd" clip-rule="evenodd" d="M69.8562 26.008H63.3042V31H57.7422V22H76.2232C75.6722 23.2188 74.7742 24.2485 73.6422 24.9612C72.5102 25.6738 71.1932 26.0378 69.8562 26.008Z" fill="#52B461"/>
<path fill-rule="evenodd" clip-rule="evenodd" d="M76.572 20H66.001C61.41 20 57.5931 17.228 56.7891 14H70.35C73.861 14 76.7061 16.434 76.7061 19.035C76.7061 19.3613 76.661 19.686 76.572 20Z" fill="url(#paint0_linear_66_2031)"/>
<defs>
<linearGradient id="paint0_linear_66_2031" x1="17682.7" y1="590" x2="17286.2" y2="590" gradientUnits="userSpaceOnUse">
<stop stop-color="#198ECA"/>
<stop offset="1" stop-color="#1DB5E4"/>
</linearGradient>
</defs>
</svg>
