<svg width="30" height="30" viewBox="0 0 30 30" fill="none" xmlns="http://www.w3.org/2000/svg">
<path d="M15 30C23.2843 30 30 23.2843 30 15C30 6.71573 23.2843 0 15 0C6.71573 0 0 6.71573 0 15C0 23.2843 6.71573 30 15 30Z" fill="#4169E1"/>
<path d="M24.2215 21.6427C23.7561 21.6996 21.4796 21.6427 21.3614 21.6427C20.773 21.6492 20.2052 21.4537 19.7814 21.0987C19.3013 20.697 18.8722 20.2542 18.4031 19.8335C18.2644 19.7059 18.1142 19.5879 17.954 19.4809C17.5795 19.2295 17.2085 19.2864 17.0322 19.6707C16.8944 20.0859 16.7982 20.5108 16.7449 20.9405C16.714 21.3295 16.4303 21.5731 15.9285 21.6C15.6176 21.6142 15.3067 21.6189 14.9994 21.6126C13.8795 21.6064 12.7773 21.3696 11.7829 20.9215C10.707 20.4001 9.76958 19.6872 9.03188 18.8294C7.81911 17.482 6.84998 16.0018 5.9845 14.4758C5.93904 14.3999 5.05174 12.7584 5.02992 12.6809C4.94991 12.4215 5.02992 12.1733 5.27538 12.0879C5.43175 12.0357 8.35549 12.0879 8.40458 12.0879C8.62194 12.0862 8.83426 12.1448 9.01079 12.2551C9.18731 12.3654 9.31888 12.5218 9.38644 12.7015C9.92692 13.9051 10.6669 15.0335 11.5829 16.0509C11.7111 16.1869 11.8611 16.3062 12.0284 16.4051C12.2665 16.5458 12.492 16.4968 12.5902 16.258C12.7065 15.9267 12.7749 15.5841 12.7938 15.238C12.8102 14.5517 12.7938 14.0994 12.7502 13.4147C12.7211 12.975 12.5429 12.5892 11.7974 12.4658C11.5683 12.431 11.5483 12.2666 11.6956 12.1021C12.0029 11.7605 12.4229 11.7068 12.8938 11.6862C13.5957 11.6514 14.2975 11.6751 14.9994 11.6862H15.1521C15.4576 11.6852 15.7623 11.7123 16.0612 11.7668C16.2379 11.7979 16.3984 11.8778 16.5186 11.9947C16.6389 12.1115 16.7125 12.259 16.7285 12.4152C16.7644 12.5884 16.7797 12.7643 16.774 12.9402C16.7558 13.6898 16.714 14.4378 16.7049 15.1874C16.6965 15.4842 16.7276 15.7808 16.7976 16.0714C16.8976 16.4699 17.2122 16.5695 17.5249 16.2817C17.9299 15.9097 18.3013 15.511 18.6359 15.0894C19.2275 14.3209 19.7156 13.4958 20.0905 12.6303C20.2941 12.1859 20.4541 12.0879 20.9996 12.0879H24.1015C24.286 12.0851 24.4698 12.1064 24.647 12.1511C24.7097 12.1655 24.7683 12.1909 24.8192 12.2258C24.8701 12.2608 24.9121 12.3045 24.9427 12.3542C24.9732 12.404 24.9916 12.4586 24.9968 12.5149C25.0019 12.5711 24.9936 12.6276 24.9725 12.6809C24.8197 13.2723 24.4524 13.7768 24.0633 14.2623C23.4324 15.0403 22.7669 15.7978 22.1214 16.5632C22.0398 16.6647 21.9651 16.7703 21.8978 16.8795C21.6542 17.2606 21.6723 17.4741 22.0251 17.792C22.5887 18.2949 23.1906 18.7677 23.7342 19.2864C24.1334 19.6635 24.4936 20.0704 24.8106 20.5025C25.2088 21.0386 24.9634 21.5509 24.2215 21.6427Z" fill="white"/>
</svg>
