<svg width="20" height="18" viewBox="0 0 20 18" fill="none" xmlns="http://www.w3.org/2000/svg">
<path fill-rule="evenodd" clip-rule="evenodd" d="M10.1008 0C10.4041 0 10.6814 0.171547 10.8167 0.442994L13.2563 5.33528L18.7144 6.11815C19.0169 6.16154 19.2683 6.37351 19.3621 6.66436C19.456 6.95522 19.3759 7.27414 19.1558 7.48618L15.2056 11.2917L16.1366 16.6634C16.1886 16.9632 16.066 17.2665 15.8203 17.446C15.5745 17.6255 15.2483 17.65 14.9785 17.5093L10.1063 14.9684L5.22248 17.5097C4.95267 17.6501 4.62657 17.6253 4.38104 17.4458C4.13551 17.2663 4.01302 16.9631 4.06496 16.6634L4.99602 11.2917L1.04577 7.48618C0.825667 7.27414 0.745606 6.95522 0.839462 6.66436C0.933319 6.37351 1.18469 6.16154 1.48722 6.11815L6.94527 5.33528L9.38488 0.442994C9.52024 0.171547 9.79748 0 10.1008 0ZM10.1008 2.59269L8.18995 6.42463C8.07274 6.65969 7.84761 6.82223 7.58761 6.85952L3.33466 7.46954L6.4118 10.4339C6.60298 10.6181 6.69035 10.8851 6.64501 11.1467L5.91743 15.3444L9.73749 13.3567C9.96918 13.2361 10.2451 13.2363 10.4767 13.357L14.2839 15.3426L13.5566 11.1467C13.5113 10.8851 13.5986 10.6181 13.7898 10.4339L16.8669 7.46954L12.614 6.85952C12.354 6.82223 12.1289 6.65969 12.0117 6.42463L10.1008 2.59269Z" fill="white"/>
</svg>
