<svg width="13" height="18" viewBox="0 0 13 18" fill="none" xmlns="http://www.w3.org/2000/svg">
<path fill-rule="evenodd" clip-rule="evenodd" d="M3.5488 1.26708C4.38822 0.453095 5.52161 0 6.69844 0C7.87526 0 9.00866 0.453095 9.84808 1.26708C10.6883 2.08187 11.1651 3.19231 11.1651 4.35556C11.1651 5.5188 10.6883 6.62924 9.84808 7.44403C9.00866 8.25802 7.87526 8.71111 6.69844 8.71111C5.52161 8.71111 4.38822 8.25802 3.5488 7.44403C2.70854 6.62924 2.23177 5.5188 2.23177 4.35556C2.23177 3.19231 2.70854 2.08187 3.5488 1.26708ZM6.69844 1.6C5.93034 1.6 5.19848 1.89611 4.66263 2.41572C4.12762 2.93452 3.83177 3.63282 3.83177 4.35556C3.83177 5.07829 4.12762 5.7766 4.66263 6.29539C5.19848 6.815 5.93034 7.11111 6.69844 7.11111C7.46653 7.11111 8.1984 6.815 8.73425 6.29539C9.26926 5.7766 9.5651 5.07829 9.5651 4.35556C9.5651 3.63282 9.26926 2.93452 8.73425 2.41572C8.1984 1.89611 7.46653 1.6 6.69844 1.6ZM4.8651 12.2667C4.09701 12.2667 3.36514 12.5628 2.8293 13.0824C2.29429 13.6012 1.99844 14.2995 1.99844 15.0222V16.8C1.99844 17.2418 1.64027 17.6 1.19844 17.6C0.75661 17.6 0.398438 17.2418 0.398438 16.8V15.0222C0.398438 13.859 0.875206 12.7485 1.71546 11.9337C2.55488 11.1198 3.68828 10.6667 4.8651 10.6667H8.53177C9.7086 10.6667 10.842 11.1198 11.6814 11.9337C12.5217 12.7485 12.9984 13.859 12.9984 15.0222V16.8C12.9984 17.2418 12.6403 17.6 12.1984 17.6C11.7566 17.6 11.3984 17.2418 11.3984 16.8V15.0222C11.3984 14.2995 11.1026 13.6012 10.5676 13.0824C10.0317 12.5628 9.29987 12.2667 8.53177 12.2667H4.8651Z" fill="white"/>
</svg>
