<svg width="18" height="18" viewBox="0 0 18 18" fill="none" xmlns="http://www.w3.org/2000/svg">
<path fill-rule="evenodd" clip-rule="evenodd" d="M5.30237 0.629262C6.30533 0.213823 7.38029 0 8.46589 0C9.55148 0 10.6264 0.213823 11.6294 0.629262C12.6324 1.0447 13.5437 1.65362 14.3113 2.42125C15.0789 3.18888 15.6879 4.10019 16.1033 5.10315C16.5187 6.10611 16.7326 7.18107 16.7326 8.26667C16.7326 9.35226 16.5187 10.4272 16.1033 11.4302C15.7903 12.1859 15.3674 12.8896 14.8496 13.519L17.5649 16.2343C17.8773 16.5467 17.8773 17.0533 17.5649 17.3657C17.2525 17.6781 16.746 17.6781 16.4335 17.3657L13.7182 14.6503C13.0888 15.1682 12.3851 15.591 11.6294 15.9041C10.6264 16.3195 9.55148 16.5333 8.46589 16.5333C7.38029 16.5333 6.30533 16.3195 5.30237 15.9041C4.29941 15.4886 3.3881 14.8797 2.62047 14.1121C1.85284 13.3445 1.24392 12.4331 0.828481 11.4302C0.413042 10.4272 0.199219 9.35226 0.199219 8.26667C0.199219 7.18107 0.413042 6.10611 0.828481 5.10315C1.24392 4.10019 1.85284 3.18888 2.62047 2.42125C3.3881 1.65362 4.29941 1.0447 5.30237 0.629262ZM8.46589 1.6C7.59041 1.6 6.7235 1.77244 5.91466 2.10747C5.10583 2.4425 4.3709 2.93356 3.75184 3.55262C3.13278 4.17168 2.64172 4.90661 2.30669 5.71544C1.97166 6.52428 1.79922 7.39119 1.79922 8.26667C1.79922 9.14215 1.97166 10.0091 2.30669 10.8179C2.64172 11.6267 3.13278 12.3617 3.75184 12.9807C4.3709 13.5998 5.10583 14.0908 5.91466 14.4259C6.7235 14.7609 7.59041 14.9333 8.46589 14.9333C9.34137 14.9333 10.2083 14.7609 11.0171 14.4259C11.8259 14.0908 12.5609 13.5998 13.1799 12.9807C13.799 12.3617 14.2901 11.6267 14.6251 10.8179C14.9601 10.0091 15.1326 9.14215 15.1326 8.26667C15.1326 7.39119 14.9601 6.52428 14.6251 5.71544C14.2901 4.90661 13.799 4.17168 13.1799 3.55262C12.5609 2.93356 11.8259 2.4425 11.0171 2.10747C10.2083 1.77244 9.34137 1.6 8.46589 1.6Z" fill="white"/>
</svg>
