<svg width="31" height="30" viewBox="0 0 31 30" fill="none" xmlns="http://www.w3.org/2000/svg">
<path d="M15.5 15C17.4891 15 19.3968 14.2098 20.8033 12.8033C22.2098 11.3968 23 9.48912 23 7.5C23 5.51088 22.2098 3.60322 20.8033 2.1967C19.3968 0.790177 17.4891 0 15.5 0C13.5109 0 11.6032 0.790177 10.1967 2.1967C8.79018 3.60322 8 5.51088 8 7.5C8 9.48912 8.79018 11.3968 10.1967 12.8033C11.6032 14.2098 13.5109 15 15.5 15ZM20.5 7.5C20.5 8.82608 19.9732 10.0979 19.0355 11.0355C18.0979 11.9732 16.8261 12.5 15.5 12.5C14.1739 12.5 12.9021 11.9732 11.9645 11.0355C11.0268 10.0979 10.5 8.82608 10.5 7.5C10.5 6.17392 11.0268 4.90215 11.9645 3.96447C12.9021 3.02678 14.1739 2.5 15.5 2.5C16.8261 2.5 18.0979 3.02678 19.0355 3.96447C19.9732 4.90215 20.5 6.17392 20.5 7.5ZM30.5 27.5C30.5 30 28 30 28 30H3C3 30 0.5 30 0.5 27.5C0.5 25 3 17.5 15.5 17.5C28 17.5 30.5 25 30.5 27.5ZM28 27.49C27.9975 26.875 27.615 25.025 25.92 23.33C24.29 21.7 21.2225 20 15.5 20C9.775 20 6.71 21.7 5.08 23.33C3.385 25.025 3.005 26.875 3 27.49H28Z" fill="#B0B0B0"/>
</svg>
